{"glyphs":{"S":{"x_min":85,"x_max":915.71875,"ha":908,"o":"m 85 327 l 279 327 q 306 206 279 239 q 469 154 350 154 q 611 189 567 154 q 656 276 656 225 q 620 351 656 320 q 481 423 594 373 q 316 507 368 474 q 234 594 264 541 q 205 720 205 648 q 294 928 205 845 q 554 1011 384 1011 q 821 927 726 1011 q 915 706 915 844 l 727 706 q 677 811 720 773 q 549 849 634 849 q 431 819 467 849 q 396 743 396 789 q 428 673 396 701 q 572 595 461 644 q 786 475 740 521 q 855 301 855 407 q 753 76 855 169 q 469 -17 651 -17 q 252 26 344 -17 q 122 148 160 70 q 85 327 85 225 "},"Ⱬ":{"x_min":33.890625,"x_max":909.1875,"ha":831,"o":"m 909 994 l 879 838 l 313 164 l 417 164 q 493 164 434 164 q 593 164 552 164 l 823 164 l 731 -274 l 568 -274 l 626 0 l 33 0 l 65 156 l 626 828 l 172 828 l 206 994 l 909 994 "},"/":{"x_min":-59.15625,"x_max":556.28125,"ha":378,"o":"m -59 -17 l 423 1011 l 556 1011 l 74 -17 l -59 -17 "},"ⱡ":{"x_min":12.625,"x_max":486.484375,"ha":378,"o":"m 486 676 l 461 555 l 357 555 l 332 435 l 436 435 l 411 314 l 308 314 l 243 0 l 53 0 l 117 314 l 12 314 l 37 435 l 142 435 l 167 555 l 62 555 l 87 676 l 192 676 l 257 993 l 447 993 l 382 676 l 486 676 "},"K":{"x_min":53.828125,"x_max":1090.625,"ha":983,"o":"m 53 0 l 257 994 l 457 994 l 371 571 l 822 994 l 1090 994 l 653 604 l 974 0 l 747 0 l 507 473 l 317 304 l 255 0 l 53 0 "},"7":{"x_min":140.890625,"x_max":820.125,"ha":757,"o":"m 140 801 l 177 981 l 820 981 l 791 842 q 656 691 730 792 q 520 466 582 590 q 417 230 457 341 q 348 0 362 75 l 167 0 q 223 205 179 74 q 360 514 278 365 q 557 801 441 663 l 140 801 "},"d":{"x_min":80,"x_max":909.34375,"ha":831,"o":"m 705 0 l 525 0 l 541 77 q 439 4 489 26 q 325 -17 388 -17 q 148 59 216 -17 q 80 284 80 135 q 175 597 80 457 q 428 737 271 737 q 642 621 571 737 l 718 994 l 909 994 l 705 0 m 265 292 q 303 172 265 215 q 397 129 341 129 q 494 165 449 129 q 566 275 539 201 q 593 418 593 350 q 551 544 593 496 q 456 593 510 593 q 318 498 372 593 q 265 292 265 403 "},",":{"x_min":13.953125,"x_max":289.109375,"ha":378,"o":"m 97 188 l 289 188 l 257 32 q 169 -158 229 -102 q 13 -214 109 -214 l 32 -125 q 106 -86 80 -114 q 145 0 132 -58 l 57 0 l 97 188 "},"Y":{"x_min":156.1875,"x_max":1068.015625,"ha":908,"o":"m 545 0 l 345 0 l 424 387 l 156 994 l 369 994 l 490 713 q 548 567 533 612 q 605 661 572 611 l 697 792 l 835 994 l 1068 994 l 621 368 l 545 0 "},"E":{"x_min":55.828125,"x_max":981.625,"ha":908,"o":"m 55 0 l 259 994 l 981 994 l 947 828 l 426 828 l 379 602 l 883 602 l 850 436 l 345 436 l 284 166 l 851 166 l 816 0 l 55 0 "},"y":{"x_min":8.453125,"x_max":844.53125,"ha":757,"o":"m 113 720 l 303 720 l 351 361 q 370 168 370 223 q 473 401 408 278 l 642 720 l 844 720 l 408 -70 q 323 -207 354 -168 q 249 -269 292 -247 q 144 -292 205 -292 q 8 -270 84 -292 l 25 -124 q 92 -135 59 -135 q 236 0 179 -135 l 113 720 "},"ⱥ":{"x_min":61,"x_max":725,"ha":756,"o":"m 725 544 q 709 412 725 489 q 679 282 694 347 q 652 102 652 153 q 667 0 652 56 l 482 0 q 470 81 470 39 q 298 -14 397 0 l 197 -273 l 92 -273 l 195 -6 q 118 42 151 7 q 61 192 61 100 q 147 374 61 316 q 347 431 214 420 l 367 433 l 432 595 q 323 515 343 595 l 137 531 q 458 736 204 736 q 486 736 470 736 l 591 1006 l 697 1006 l 585 720 q 660 681 630 706 q 725 544 725 625 m 542 524 q 526 567 542 548 l 479 447 q 530 459 511 452 q 542 524 542 500 m 504 335 q 458 326 484 330 q 430 322 452 325 l 355 131 q 466 205 431 144 q 499 309 484 237 l 504 335 m 314 296 q 271 275 286 286 q 240 209 240 250 q 259 156 240 178 l 314 296 "},"\"":{"x_min":207,"x_max":689.578125,"ha":645,"o":"m 207 641 l 207 825 l 244 994 l 447 994 l 412 825 l 343 641 l 207 641 m 449 641 l 449 825 l 486 994 l 689 994 l 654 825 l 585 641 l 449 641 "},"ⱨ":{"x_min":57.390625,"x_max":804,"ha":831,"o":"m 804 555 q 785 421 804 511 l 726 132 l 788 132 l 714 -223 l 560 -223 l 613 0 l 508 0 l 597 429 q 611 518 611 497 q 529 598 611 598 q 437 564 481 598 q 350 454 380 520 q 306 285 333 417 l 248 0 l 57 0 l 261 994 l 452 994 l 379 640 q 618 737 500 737 q 752 688 701 737 q 804 555 804 639 "},"g":{"x_min":43,"x_max":847.875,"ha":832,"o":"m 45 -37 l 246 -67 q 255 -114 246 -98 q 288 -141 265 -130 q 349 -153 310 -153 q 446 -128 409 -153 q 491 -67 473 -109 q 518 47 501 -40 l 524 81 q 320 -2 426 -2 q 150 72 216 -2 q 84 290 84 147 q 129 522 84 417 q 255 682 174 628 q 422 737 337 737 q 551 699 493 737 q 642 592 609 661 l 669 720 l 847 720 l 725 120 q 675 -85 695 -24 q 627 -184 654 -147 q 560 -245 601 -220 q 465 -281 520 -270 q 345 -292 409 -292 q 119 -239 195 -292 q 43 -65 43 -187 q 45 -37 43 -52 m 270 310 q 306 185 270 228 q 396 142 342 142 q 493 180 446 142 q 565 290 540 219 q 590 427 590 361 q 549 551 590 504 q 455 598 509 598 q 361 556 404 598 q 291 429 319 515 q 270 310 270 362 "},"ⱴ":{"x_min":78.203125,"x_max":862.5625,"ha":757,"o":"m 862 720 l 409 0 l 240 0 l 169 350 l 94 320 l 78 413 l 151 443 l 144 498 q 142 525 142 513 q 202 678 142 620 q 362 737 262 737 q 462 706 422 737 q 507 614 507 673 q 338 412 507 472 l 367 216 l 663 720 l 862 720 m 403 589 q 367 633 403 633 q 316 574 316 633 q 317 555 316 565 l 324 504 q 403 589 403 534 "},"e":{"x_min":79,"x_max":755,"ha":757,"o":"m 741 299 l 262 299 q 262 281 262 287 q 302 165 262 209 q 400 122 342 122 q 549 221 495 122 l 719 192 q 586 35 669 87 q 399 -17 503 -17 q 168 74 257 -17 q 79 317 79 166 q 159 581 79 465 q 472 737 269 737 q 678 655 602 737 q 755 425 755 573 q 741 299 755 355 m 581 418 q 581 437 581 430 q 545 557 581 517 q 451 598 510 598 q 345 552 392 598 q 281 418 298 506 l 581 418 "},"J":{"x_min":39,"x_max":816.171875,"ha":757,"o":"m 619 994 l 816 994 l 693 391 q 564 67 643 152 q 318 -17 484 -17 q 108 48 178 -17 q 39 227 39 114 q 42 280 39 251 l 227 301 q 224 251 224 271 q 250 179 224 204 q 332 154 277 154 q 440 200 409 154 q 497 398 463 235 l 619 994 "},"|":{"x_min":117,"x_max":265,"ha":381,"o":"m 117 -292 l 117 1011 l 265 1011 l 265 -292 l 117 -292 "},"ⱬ":{"x_min":22.59375,"x_max":705.8125,"ha":681,"o":"m 705 720 l 682 603 l 292 157 l 632 157 l 552 -223 l 398 -223 l 451 0 l 22 0 l 49 131 l 436 568 l 120 568 l 152 720 l 705 720 "},"Ᵽ":{"x_min":55.15625,"x_max":956,"ha":908,"o":"m 956 744 q 930 604 956 675 q 857 484 903 530 q 638 385 781 406 q 461 379 591 379 l 333 379 l 255 0 l 55 0 l 184 628 l 85 628 l 110 749 l 208 749 l 259 994 l 655 994 q 920 884 852 994 q 956 744 956 825 m 755 727 q 695 820 755 799 q 569 831 668 831 l 426 831 l 409 749 l 592 749 l 567 628 l 384 628 l 366 544 l 428 544 q 589 551 547 544 q 724 629 682 568 q 755 727 755 674 "},"^":{"x_min":142.890625,"x_max":784.234375,"ha":795,"o":"m 142 469 l 392 1011 l 540 1011 l 784 469 l 595 469 l 463 800 l 332 469 l 142 469 "},"q":{"x_min":81,"x_max":850.546875,"ha":831,"o":"m 675 720 l 850 720 l 647 -274 l 456 -274 l 524 60 q 429 0 474 18 q 328 -17 385 -17 q 148 59 216 -17 q 81 282 81 136 q 126 508 81 398 q 254 677 172 618 q 430 737 335 737 q 651 606 583 737 l 675 720 m 265 285 q 303 170 265 213 q 396 128 342 128 q 490 161 445 128 q 563 272 535 195 q 592 420 592 349 q 551 547 592 501 q 457 593 510 593 q 368 557 413 593 q 293 441 322 522 q 265 285 265 360 "},"b":{"x_min":48.796875,"x_max":819,"ha":832,"o":"m 48 0 l 252 993 l 443 993 l 375 661 q 473 719 427 702 q 572 737 518 737 q 751 660 684 737 q 819 438 819 584 q 787 247 819 340 q 702 97 755 155 q 591 11 650 39 q 469 -17 533 -17 q 246 118 317 -17 l 222 0 l 48 0 m 306 293 q 346 175 306 220 q 441 130 386 130 q 532 165 488 130 q 605 277 576 200 q 634 433 634 355 q 595 554 634 510 q 500 598 556 598 q 377 530 429 598 q 306 293 306 437 "},"D":{"x_min":59.25,"x_max":986,"ha":983,"o":"m 59 0 l 263 994 l 525 994 q 665 990 635 994 q 773 965 726 984 q 860 912 821 946 q 927 829 898 878 q 970 719 955 781 q 986 581 986 656 q 925 296 986 421 q 774 98 865 172 q 594 14 704 42 q 402 0 532 0 l 59 0 m 292 160 l 394 160 q 554 173 504 160 q 644 225 603 187 q 744 372 703 280 q 785 587 785 463 q 751 746 785 693 q 668 817 717 800 q 545 830 634 830 l 429 830 l 292 160 "},"ⱪ":{"x_min":51.171875,"x_max":836.078125,"ha":757,"o":"m 836 720 l 552 458 l 659 132 l 735 132 l 660 -223 l 506 -223 l 559 0 l 512 0 l 415 333 l 286 216 l 241 0 l 51 0 l 255 994 l 445 994 l 339 476 l 588 720 l 836 720 "},"￼":{"x_min":0,"x_max":1361,"ha":1361,"o":"m 1361 779 l 1295 779 l 1295 931 l 1146 931 l 1146 999 l 1361 999 l 1361 779 m 979 931 l 764 931 l 764 999 l 979 999 l 979 931 m 1361 390 l 1295 390 l 1295 609 l 1361 609 l 1361 390 m 1184 414 q 1044 251 1184 251 q 952 281 987 251 l 1000 334 q 1043 317 1017 317 q 1107 411 1107 317 l 1107 738 l 1184 738 l 1184 414 m 597 931 l 382 931 l 382 999 l 597 999 l 597 931 m 1361 0 l 1146 0 l 1146 68 l 1295 68 l 1295 219 l 1361 219 l 1361 0 m 946 400 q 763 259 946 259 l 604 259 l 604 739 l 760 739 q 926 612 926 739 q 867 514 926 551 q 946 400 946 483 m 214 931 l 66 931 l 66 779 l 0 779 l 0 999 l 214 999 l 214 931 m 979 0 l 764 0 l 764 68 l 979 68 l 979 0 m 568 498 q 513 316 568 381 q 357 251 458 251 q 201 316 255 251 q 148 498 148 381 q 201 681 148 616 q 357 747 255 747 q 513 681 458 747 q 568 498 568 616 m 66 390 l 0 390 l 0 609 l 66 609 l 66 390 m 597 0 l 382 0 l 382 68 l 597 68 l 597 0 m 214 0 l 0 0 l 0 219 l 66 219 l 66 68 l 214 68 l 214 0 m 849 605 q 740 673 849 673 l 681 673 l 681 541 l 748 541 q 849 605 849 541 m 869 400 q 755 475 869 475 l 681 475 l 681 325 l 763 325 q 869 400 869 325 m 491 498 q 357 681 491 681 q 225 498 225 681 q 357 317 225 317 q 491 498 491 317 "},"z":{"x_min":22.59375,"x_max":705.8125,"ha":681,"o":"m 22 0 l 49 131 l 436 568 l 120 568 l 152 720 l 705 720 l 682 603 l 292 157 l 632 157 l 599 0 l 22 0 "},"ⱶ":{"x_min":47.859375,"x_max":593.5,"ha":609,"o":"m 593 453 l 562 302 l 299 302 l 235 0 l 47 0 l 198 719 l 386 719 l 330 453 l 593 453 "},"w":{"x_min":97.21875,"x_max":1143.015625,"ha":1058,"o":"m 791 0 l 595 0 l 595 458 l 362 0 l 185 0 l 97 720 l 266 720 l 315 237 l 535 720 l 721 720 l 721 237 l 951 720 l 1143 720 l 791 0 "},"$":{"x_min":64.21875,"x_max":784.8125,"ha":758,"o":"m 286 -6 q 127 95 190 17 q 64 293 64 174 l 228 293 q 317 145 241 181 l 378 445 q 223 568 272 493 q 175 724 175 642 q 213 865 175 797 q 324 972 252 934 q 459 1011 395 1011 l 494 1011 l 506 1069 l 601 1069 l 586 999 q 724 914 672 977 q 784 752 776 850 l 621 752 q 556 852 609 823 l 501 582 q 671 461 619 534 q 723 294 723 388 q 627 73 723 164 q 379 -18 532 -18 l 354 -137 l 259 -137 l 286 -6 m 414 622 l 465 869 q 371 832 408 869 q 334 744 334 795 q 414 622 334 668 m 465 404 l 409 135 q 525 176 484 135 q 566 276 566 218 q 547 341 566 314 q 465 404 528 369 "},"\\":{"x_min":106.34375,"x_max":390.78125,"ha":378,"o":"m 257 -17 l 106 1011 l 239 1011 l 390 -17 l 257 -17 "},"~":{"x_min":91,"x_max":797,"ha":795,"o":"m 91 352 l 91 527 q 194 604 138 580 q 290 622 234 622 q 370 611 332 622 q 509 559 409 601 q 614 531 576 531 q 797 627 709 531 l 797 444 q 709 381 765 410 q 602 353 654 353 q 534 361 568 353 q 433 401 500 370 q 272 447 330 447 q 91 352 179 447 "},"-":{"x_min":52.5,"x_max":461.234375,"ha":453,"o":"m 91 452 l 461 452 l 422 264 l 52 264 l 91 452 "},"Q":{"x_min":119,"x_max":1067,"ha":1059,"o":"m 716 19 q 619 -8 669 1 q 516 -18 570 -18 q 228 95 338 -18 q 119 392 119 209 q 187 695 119 542 q 380 929 255 848 q 664 1011 505 1011 q 955 896 844 1011 q 1067 592 1067 782 q 1007 314 1067 447 q 848 98 948 181 q 982 -5 912 35 l 888 -132 q 716 19 795 -86 m 733 240 q 830 402 793 303 q 868 588 868 501 q 806 773 868 706 q 648 840 744 840 q 526 809 582 840 q 424 720 470 778 q 347 575 377 661 q 318 403 318 489 q 380 220 318 287 q 540 154 443 154 q 597 158 567 154 q 610 162 608 160 q 613 168 613 164 q 593 192 613 173 q 504 250 551 233 l 577 364 q 733 240 667 318 "},"M":{"x_min":55.09375,"x_max":1195.6875,"ha":1134,"o":"m 616 0 l 408 0 l 408 830 l 235 0 l 55 0 l 258 994 l 559 994 l 559 297 l 906 994 l 1195 994 l 991 0 l 808 0 l 1000 824 l 616 0 "},"C":{"x_min":129,"x_max":1014.53125,"ha":983,"o":"m 761 357 l 963 326 q 785 70 904 159 q 508 -18 667 -18 q 229 91 330 -18 q 129 410 129 201 q 196 720 129 579 q 383 935 263 860 q 643 1010 503 1010 q 899 923 801 1010 q 1014 688 997 837 l 822 669 q 760 795 806 756 q 639 834 715 834 q 484 782 556 834 q 369 621 412 731 q 326 403 326 512 q 382 219 326 284 q 522 154 438 154 q 664 205 599 154 q 761 357 729 256 "},"[":{"x_min":13.296875,"x_max":597.484375,"ha":453,"o":"m 368 -129 l 338 -274 l 13 -274 l 273 994 l 597 994 l 566 843 l 421 843 l 222 -129 l 368 -129 "},"Ⱨ":{"x_min":59.15625,"x_max":1040.765625,"ha":983,"o":"m 1040 994 l 870 166 l 957 166 l 865 -274 l 702 -274 l 760 0 l 636 0 l 727 444 l 350 444 l 259 0 l 59 0 l 263 993 l 463 993 l 384 610 l 761 610 l 840 994 l 1040 994 "},"L":{"x_min":61.140625,"x_max":791.546875,"ha":831,"o":"m 61 0 l 265 993 l 465 993 l 295 166 l 791 166 l 757 0 l 61 0 "},"꜡":{"x_min":-195,"x_max":241.234375,"ha":1,"o":"m 241 0 l -195 0 l -195 234 l -117 234 l -117 79 l 4 79 l 4 234 l 82 234 l 82 79 l 241 79 l 241 0 "},"!":{"x_min":83.734375,"x_max":480.515625,"ha":453,"o":"m 277 253 l 172 253 l 232 760 l 280 994 l 480 994 l 429 742 l 277 253 m 122 188 l 311 188 l 272 0 l 83 0 l 122 188 "},"Ɫ":{"x_min":3.984375,"x_max":791.546875,"ha":831,"o":"m 791 166 l 757 0 l 61 0 l 156 465 q 147 466 151 466 q 87 410 106 466 l 3 410 q 46 526 21 493 q 135 574 82 574 q 178 568 150 574 l 265 993 l 465 993 l 368 521 q 383 521 374 521 q 429 574 414 521 l 514 574 q 380 411 489 411 q 346 415 368 411 l 295 166 l 791 166 "}," ":{"x_min":0,"x_max":0,"ha":378},"{":{"x_min":57.546875,"x_max":668.328125,"ha":531,"o":"m 57 276 l 92 442 q 169 454 140 442 q 221 497 197 467 q 260 568 245 528 q 293 695 275 608 q 344 872 318 819 q 406 953 370 924 q 505 999 442 981 q 633 1011 547 1011 l 668 1011 l 634 849 q 534 839 558 849 q 497 808 509 829 q 467 709 488 794 q 417 526 430 558 q 361 430 393 467 q 269 359 328 393 q 327 295 308 332 q 346 196 346 257 q 338 124 346 173 q 310 -32 316 -7 q 305 -72 305 -56 q 314 -103 305 -91 q 342 -122 324 -116 q 425 -129 361 -129 l 391 -292 l 355 -292 q 218 -276 263 -292 q 148 -226 173 -261 q 124 -135 124 -190 q 147 18 124 -89 q 171 162 171 126 q 145 249 171 222 q 57 276 120 276 "},"X":{"x_min":-41.203125,"x_max":1066.6875,"ha":908,"o":"m 217 0 l -41 0 l 388 503 l 146 994 l 356 994 l 451 807 q 516 669 455 797 q 525 651 520 663 q 661 817 606 752 l 814 994 l 1066 994 l 620 470 l 860 0 l 634 0 l 561 149 q 485 320 504 268 q 352 154 459 280 l 217 0 "},"P":{"x_min":55.15625,"x_max":956,"ha":908,"o":"m 255 0 l 55 0 l 259 994 l 655 994 q 822 968 761 994 q 920 884 884 943 q 956 744 956 825 q 927 598 956 669 q 857 484 898 526 q 767 419 815 441 q 638 385 719 397 q 461 379 591 379 l 333 379 l 255 0 m 366 544 l 428 544 q 640 564 587 544 q 724 629 693 584 q 755 727 755 674 q 739 786 755 763 q 695 820 723 809 q 569 831 667 831 l 426 831 l 366 544 "},"%":{"x_min":124,"x_max":1177,"ha":1211,"o":"m 124 684 q 192 912 124 814 q 383 1010 260 1010 q 517 955 467 1010 q 568 804 568 901 q 533 643 568 724 q 440 525 499 563 q 308 488 381 488 q 174 540 225 488 q 124 684 124 593 m 264 669 q 278 618 264 634 q 318 603 293 603 q 398 676 366 603 q 431 831 431 750 q 415 878 431 861 q 375 895 400 895 q 325 871 347 895 q 283 780 303 848 q 264 669 264 712 m 322 -43 l 169 -43 l 981 1010 l 1134 1010 l 322 -43 m 733 154 q 801 382 733 284 q 992 481 869 481 q 1126 426 1076 481 q 1177 275 1177 372 q 1142 114 1177 195 q 1049 -3 1108 33 q 917 -41 990 -41 q 783 11 834 -41 q 733 154 733 64 m 873 140 q 887 89 873 105 q 928 74 902 74 q 1007 147 975 74 q 1040 302 1040 220 q 1024 349 1040 332 q 985 366 1009 366 q 934 342 957 366 q 892 251 912 319 q 873 140 873 183 "},"#":{"x_min":65,"x_max":794,"ha":757,"o":"m 155 247 l 65 247 l 65 396 l 184 396 l 224 596 l 65 596 l 65 746 l 254 746 l 306 1010 l 455 1010 l 403 746 l 550 746 l 601 1010 l 755 1010 l 702 746 l 794 746 l 794 596 l 672 596 l 632 396 l 794 396 l 794 247 l 602 247 l 550 -17 l 401 -17 l 453 247 l 305 247 l 253 -17 l 102 -17 l 155 247 m 374 596 l 334 396 l 482 396 l 520 596 l 374 596 "},"_":{"x_min":-13,"x_max":763,"ha":756,"o":"m -13 -275 l -13 -152 l 763 -152 l 763 -275 l -13 -275 "},"Ⱡ":{"x_min":17.9375,"x_max":791.546875,"ha":831,"o":"m 791 166 l 757 0 l 61 0 l 124 308 l 17 308 l 44 434 l 150 434 l 176 560 l 64 560 l 91 686 l 202 686 l 265 993 l 465 993 l 402 686 l 594 686 l 568 560 l 376 560 l 350 434 l 548 434 l 521 308 l 325 308 l 295 166 l 791 166 "},"+":{"x_min":110,"x_max":791,"ha":795,"o":"m 365 143 l 365 401 l 110 401 l 110 579 l 365 579 l 365 838 l 535 838 l 535 579 l 791 579 l 791 401 l 535 401 l 535 143 l 365 143 "},"Ⱪ":{"x_min":53.828125,"x_max":1090.625,"ha":983,"o":"m 1090 994 l 653 604 l 885 166 l 1012 166 l 919 -275 l 756 -275 l 814 0 l 747 0 l 507 473 l 317 304 l 255 0 l 53 0 l 257 994 l 457 994 l 371 571 l 822 994 l 1090 994 "},")":{"x_min":-106.640625,"x_max":396,"ha":453,"o":"m 159 1011 l 289 1011 q 369 749 343 882 q 396 506 396 616 q 352 228 396 368 q 219 -55 309 89 q 38 -292 162 -147 l -106 -292 q 88 -7 19 -140 q 191 283 157 125 q 225 592 225 440 q 210 790 225 694 q 159 1011 195 886 "},"'":{"x_min":207,"x_max":447.578125,"ha":324,"o":"m 207 641 l 207 825 l 244 994 l 447 994 l 412 825 l 343 641 l 207 641 "},"}":{"x_min":-115.671875,"x_max":494.125,"ha":529,"o":"m 459 277 q 366 255 400 277 q 307 184 332 233 q 259 17 283 135 q 209 -152 235 -99 q 147 -233 183 -204 q 48 -279 110 -262 q -80 -292 5 -292 l -115 -292 l -81 -129 q 16 -118 -9 -129 q 55 -87 42 -108 q 85 9 65 -73 q 133 188 122 159 q 192 289 156 247 q 283 359 228 331 q 222 427 239 392 q 206 522 206 461 q 213 594 206 546 q 241 750 235 724 q 247 796 247 777 q 238 825 247 814 q 211 843 230 837 q 126 849 192 849 l 160 1011 l 195 1011 q 332 995 287 1011 q 402 945 377 980 q 427 855 427 910 q 404 701 427 809 q 381 556 381 593 q 405 469 381 497 q 494 442 430 442 l 459 277 "},"a":{"x_min":61,"x_max":725,"ha":756,"o":"m 323 516 l 137 532 q 248 682 169 628 q 458 737 327 737 q 659 681 594 737 q 725 544 725 625 q 719 475 725 512 q 679 282 713 438 q 652 102 652 154 q 667 0 652 56 l 482 0 q 470 81 470 39 q 372 8 426 33 q 262 -17 317 -17 q 118 43 175 -17 q 61 198 61 103 q 123 367 61 304 q 347 431 186 431 q 530 459 484 431 q 542 524 542 500 q 517 577 542 556 q 444 598 492 598 q 363 576 392 598 q 323 516 333 555 m 504 335 q 458 326 487 331 q 271 275 315 309 q 240 209 240 251 q 263 152 240 175 q 327 129 287 129 q 408 150 370 129 q 465 205 446 171 q 499 310 484 238 l 504 335 "},"T":{"x_min":163.5,"x_max":965.015625,"ha":831,"o":"m 479 0 l 279 0 l 449 828 l 163 828 l 197 994 l 965 994 l 931 828 l 649 828 l 479 0 "},"=":{"x_min":110,"x_max":791,"ha":795,"o":"m 110 553 l 110 728 l 791 728 l 791 553 l 110 553 m 110 252 l 110 428 l 791 428 l 791 252 l 110 252 "},"N":{"x_min":61.140625,"x_max":1038.109375,"ha":983,"o":"m 834 0 l 647 0 l 384 667 l 247 0 l 61 0 l 264 994 l 451 994 l 715 328 l 852 994 l 1038 994 l 834 0 "},"2":{"x_min":82.25,"x_max":777,"ha":757,"o":"m 359 683 l 172 712 q 278 924 195 850 q 485 998 360 998 q 699 922 621 998 q 777 731 777 847 q 753 613 777 672 q 674 488 729 553 q 546 358 635 442 q 428 243 457 274 q 372 178 399 212 l 710 178 l 674 0 l 82 0 q 124 139 91 73 q 206 262 157 205 q 386 446 255 319 q 510 571 485 542 q 574 662 557 624 q 592 732 592 701 q 563 813 592 782 q 489 845 534 845 q 410 810 444 845 q 359 683 376 775 "},"j":{"x_min":-148.875,"x_max":450.609375,"ha":378,"o":"m 259 994 l 450 994 l 414 818 l 223 818 l 259 994 m 203 720 l 394 720 l 269 110 q 178 -205 216 -150 q -5 -292 120 -292 q -148 -270 -83 -292 l -118 -109 q -41 -121 -73 -121 q 19 -90 -3 -121 q 81 123 43 -60 l 203 720 "},"Z":{"x_min":33.890625,"x_max":909.1875,"ha":831,"o":"m 33 0 l 65 156 l 626 828 l 172 828 l 206 994 l 909 994 l 879 838 l 313 164 q 417 164 403 164 q 593 164 481 164 l 823 164 l 789 0 l 33 0 "},"ⱷ":{"x_min":82,"x_max":942,"ha":957,"o":"m 942 448 q 840 141 942 273 q 440 -17 718 -17 q 157 113 263 -17 q 82 341 82 206 q 188 622 82 511 q 458 731 291 731 l 419 558 q 310 475 349 540 q 276 339 276 418 q 378 155 276 223 l 437 438 q 509 645 467 582 q 691 737 571 737 q 877 650 808 737 q 942 448 942 570 m 759 475 q 703 576 759 576 q 648 529 666 576 q 628 451 641 515 l 562 144 q 711 274 655 165 q 759 475 759 367 "},"u":{"x_min":96,"x_max":843.28125,"ha":832,"o":"m 201 720 l 392 720 l 304 293 q 289 197 289 216 q 311 144 289 166 q 369 122 334 122 q 419 131 394 122 q 469 161 443 141 q 516 207 495 181 q 554 275 536 233 q 582 376 567 306 l 652 720 l 843 720 l 695 0 l 517 0 l 537 97 q 282 -17 420 -17 q 145 33 195 -17 q 96 170 96 84 q 118 318 96 207 l 201 720 "},"1":{"x_min":161.5,"x_max":695.171875,"ha":757,"o":"m 161 570 l 197 744 q 578 1000 443 854 l 695 1000 l 489 0 l 297 0 l 439 688 q 301 616 379 649 q 161 570 223 584 "},"k":{"x_min":51.171875,"x_max":836.078125,"ha":757,"o":"m 51 0 l 255 994 l 445 994 l 339 476 l 588 720 l 836 720 l 552 458 l 703 0 l 512 0 l 415 332 l 286 216 l 241 0 l 51 0 "},"Ⱶ":{"x_min":59.15625,"x_max":761.640625,"ha":753,"o":"m 761 610 l 727 444 l 350 444 l 259 0 l 59 0 l 263 993 l 463 993 l 384 610 l 761 610 "},"<":{"x_min":116,"x_max":784,"ha":795,"o":"m 784 113 l 116 409 l 116 573 l 784 868 l 784 675 l 318 493 l 784 305 l 784 113 "},"t":{"x_min":102.359375,"x_max":531.640625,"ha":453,"o":"m 102 576 l 131 720 l 224 720 l 247 835 l 466 969 l 415 720 l 531 720 l 502 576 l 385 576 l 323 274 q 307 180 307 192 q 320 145 307 158 q 371 133 334 133 q 434 137 384 133 l 404 -6 q 303 -17 355 -17 q 156 22 202 -17 q 111 132 111 62 q 135 286 111 166 l 194 576 l 102 576 "},"W":{"x_min":177,"x_max":1453.375,"ha":1285,"o":"m 982 0 l 768 0 l 768 726 l 402 0 l 177 0 l 177 994 l 359 994 l 359 298 l 698 994 l 927 994 l 927 305 l 1259 994 l 1453 994 l 982 0 "},"꜠":{"x_min":-53,"x_max":383.21875,"ha":0,"o":"m 383 915 l 224 915 l 224 759 l 146 759 l 146 915 l 25 915 l 25 759 l -53 759 l -53 994 l 383 994 l 383 915 "},"v":{"x_min":101.6875,"x_max":841.390625,"ha":757,"o":"m 407 0 l 243 0 l 101 720 l 289 720 l 338 406 q 363 236 359 278 q 409 324 368 248 q 459 416 450 400 l 635 720 l 841 720 l 407 0 "},">":{"x_min":116,"x_max":785,"ha":795,"o":"m 116 112 l 116 304 l 582 491 l 116 676 l 116 867 l 785 572 l 785 409 l 116 112 "},"s":{"x_min":30.328125,"x_max":751.171875,"ha":757,"o":"m 30 201 l 214 231 q 275 146 239 171 q 375 122 312 122 q 479 151 440 122 q 507 201 507 172 q 493 236 507 221 q 413 273 478 251 q 200 365 241 331 q 136 503 136 418 q 198 650 136 589 q 456 737 285 737 q 662 686 593 737 q 751 548 732 635 l 574 517 q 529 576 560 556 q 427 603 487 603 q 341 582 367 603 q 315 535 315 562 q 341 491 315 508 q 448 453 358 480 q 635 371 588 411 q 702 236 702 315 q 617 58 702 133 q 379 -17 533 -17 q 143 40 226 -17 q 30 201 60 97 "},"B":{"x_min":54.78125,"x_max":967,"ha":984,"o":"m 54 0 l 258 994 l 591 994 q 743 987 700 994 q 865 946 815 977 q 941 865 915 916 q 967 752 967 814 q 921 609 967 670 q 781 517 876 548 q 898 442 856 496 q 941 320 941 388 q 891 150 941 231 q 753 35 841 70 q 513 0 665 0 l 54 0 m 376 593 l 529 593 q 677 607 632 593 q 745 656 722 622 q 768 729 768 690 q 746 791 768 767 q 686 823 725 815 q 580 828 664 828 l 424 828 l 376 593 m 288 160 l 481 160 q 644 175 603 160 q 711 228 686 191 q 736 305 736 265 q 700 387 736 355 q 580 420 664 420 l 341 420 l 288 160 "},"?":{"x_min":167.203125,"x_max":841,"ha":831,"o":"m 464 248 l 293 248 q 348 405 306 339 q 518 584 391 472 q 644 710 625 680 q 663 769 663 741 q 630 839 663 811 q 530 868 597 868 q 409 826 456 868 q 341 694 361 785 l 167 725 q 298 934 201 857 q 534 1011 395 1011 q 759 937 678 1011 q 841 761 841 863 q 806 642 841 701 q 617 452 771 583 q 497 337 520 369 q 464 248 474 304 m 273 188 l 462 188 l 423 0 l 234 0 l 273 188 "},"H":{"x_min":59.15625,"x_max":1040.765625,"ha":983,"o":"m 727 444 l 350 444 l 259 0 l 59 0 l 263 993 l 463 993 l 384 610 l 761 610 l 840 994 l 1040 994 l 837 0 l 636 0 l 727 444 "},"c":{"x_min":82,"x_max":768.53125,"ha":757,"o":"m 533 271 l 718 240 q 583 48 672 114 q 375 -17 493 -17 q 161 65 240 -17 q 82 290 82 147 q 129 512 82 408 q 274 676 177 616 q 485 737 370 737 q 684 670 610 737 q 768 495 759 604 l 587 475 q 550 564 580 536 q 473 593 521 593 q 370 551 418 593 q 296 425 322 509 q 271 268 271 341 q 301 170 271 205 q 378 136 332 136 q 466 169 424 136 q 533 271 509 203 "},"&":{"x_min":113,"x_max":960.890625,"ha":983,"o":"m 823 432 l 960 348 q 910 266 941 310 q 853 196 879 221 q 950 104 891 155 l 829 -23 q 772 18 807 -10 q 713 73 737 47 q 593 8 665 34 q 437 -17 520 -17 q 199 64 285 -17 q 113 265 113 146 q 147 405 113 340 q 235 515 181 469 q 364 597 275 549 q 321 764 321 692 q 395 939 321 868 q 592 1011 470 1011 q 758 954 697 1011 q 820 821 820 897 q 767 682 820 757 q 593 545 714 607 q 687 395 631 479 q 742 322 721 344 q 823 432 776 356 m 524 677 q 634 759 602 718 q 657 820 657 789 q 638 866 657 848 q 588 884 620 884 q 522 855 549 884 q 496 782 496 827 q 524 677 496 738 m 433 460 q 301 283 301 393 q 340 180 301 220 q 444 141 379 141 q 607 197 523 141 q 433 460 507 322 "},"I":{"x_min":47.1875,"x_max":451.265625,"ha":378,"o":"m 47 0 l 251 994 l 451 994 l 247 0 l 47 0 "},"G":{"x_min":120,"x_max":1068.984375,"ha":1058,"o":"m 597 531 l 1033 531 l 946 104 q 756 18 868 53 q 528 -17 644 -17 q 251 66 347 -17 q 120 396 120 180 q 176 674 120 541 q 369 922 244 834 q 662 1011 494 1011 q 933 931 831 1011 q 1068 698 1035 851 l 882 676 q 802 803 857 760 q 664 846 747 846 q 486 794 567 846 q 359 635 405 742 q 314 399 314 527 q 369 214 314 274 q 533 154 425 154 q 665 172 597 154 q 782 217 733 191 l 812 365 l 563 365 l 597 531 "},"(":{"x_min":90,"x_max":593.296875,"ha":454,"o":"m 326 -292 l 197 -292 q 116 -29 142 -162 q 90 213 90 102 q 133 490 90 351 q 266 774 177 630 q 448 1011 323 866 l 593 1011 q 397 725 466 859 q 294 434 328 592 q 261 126 261 277 q 275 -70 261 25 q 326 -292 290 -167 "},"`":{"x_min":182.109375,"x_max":450.609375,"ha":453,"o":"m 182 1017 l 365 1017 l 450 814 l 321 814 l 182 1017 "},"U":{"x_min":124,"x_max":1040.765625,"ha":982,"o":"m 259 994 l 459 994 l 348 454 l 321 321 q 319 289 319 304 q 361 192 319 230 q 483 154 403 154 q 603 181 556 154 q 676 264 650 209 q 729 450 702 319 l 840 994 l 1040 994 l 929 450 q 848 187 894 278 q 709 39 802 96 q 474 -17 616 -17 q 214 68 304 -17 q 124 286 124 153 q 128 347 124 314 q 151 470 131 368 l 259 994 "},"F":{"x_min":53.171875,"x_max":939.09375,"ha":831,"o":"m 53 0 l 257 994 l 939 994 l 904 828 l 423 828 l 374 589 l 846 589 l 812 423 l 340 423 l 253 0 l 53 0 "},"r":{"x_min":43.859375,"x_max":645.328125,"ha":530,"o":"m 191 720 l 369 720 l 340 580 q 556 737 440 737 q 645 715 598 737 l 572 556 q 517 566 546 566 q 417 528 467 566 q 337 426 366 490 q 281 225 309 363 l 234 0 l 43 0 l 191 720 "},":":{"x_min":95.703125,"x_max":431.328125,"ha":453,"o":"m 243 720 l 431 720 l 392 532 l 204 532 l 243 720 m 134 188 l 323 188 l 284 0 l 95 0 l 134 188 "},"x":{"x_min":-29.90625,"x_max":833.421875,"ha":757,"o":"m 379 202 l 204 0 l -29 0 l 296 368 l 116 720 l 319 720 l 422 514 l 601 720 l 833 720 l 505 346 l 683 0 l 481 0 l 379 202 "},"*":{"x_min":133.21875,"x_max":614.75,"ha":529,"o":"m 277 537 l 177 616 q 276 721 224 671 q 302 747 297 741 q 207 769 286 749 q 133 790 151 783 l 172 909 q 327 830 259 874 q 312 1011 312 941 l 430 1011 q 412 829 430 961 q 469 855 425 834 q 579 903 529 883 l 614 780 q 443 747 540 763 l 523 655 q 561 610 547 627 l 459 541 l 370 693 q 277 537 329 619 "},"ⱦ":{"x_min":-121.765625,"x_max":829.28125,"ha":453,"o":"m 829 1006 l 265 154 q 323 133 279 133 q 386 137 336 133 l 356 -6 q 255 -17 307 -17 q 161 -4 200 -17 l -16 -273 l -121 -273 l 88 44 q 63 132 63 80 q 87 286 63 165 l 146 576 l 54 576 l 83 720 l 176 720 l 199 835 l 418 969 l 367 720 l 534 720 l 723 1006 l 829 1006 m 439 576 l 337 576 l 294 364 l 299 364 l 439 576 "},"V":{"x_min":154.1875,"x_max":1079.984375,"ha":908,"o":"m 542 0 l 328 0 l 154 994 l 354 994 l 477 242 l 881 994 l 1079 994 l 542 0 "},"h":{"x_min":57.390625,"x_max":804,"ha":831,"o":"m 248 0 l 57 0 l 261 994 l 452 994 l 379 640 q 499 714 443 691 q 618 737 555 737 q 754 686 704 737 q 804 555 804 636 q 785 421 804 511 l 699 0 l 508 0 l 597 429 q 611 518 611 499 q 589 576 611 554 q 529 598 567 598 q 437 564 481 598 q 350 454 380 519 q 306 285 333 418 l 248 0 "},"⸗":{"x_min":7.3125,"x_max":509.75,"ha":453,"o":"m 509 686 l 470 495 l 75 360 l 114 550 l 509 686 m 441 360 l 402 169 l 7 33 l 47 224 l 441 360 "},"0":{"x_min":88,"x_max":778,"ha":757,"o":"m 88 323 q 137 627 88 473 q 294 906 199 814 q 507 998 390 998 q 701 910 625 998 q 778 656 778 823 q 722 333 778 503 q 572 73 666 164 q 359 -17 478 -17 q 164 70 241 -17 q 88 323 88 157 m 275 284 q 300 171 275 204 q 365 139 325 139 q 460 189 418 139 q 558 453 515 256 q 592 701 592 610 q 566 809 592 776 q 500 842 540 842 q 410 792 450 842 q 310 539 352 720 q 275 284 275 383 "},".":{"x_min":59.8125,"x_max":287.109375,"ha":378,"o":"m 98 188 l 287 188 l 248 0 l 59 0 l 98 188 "},"@":{"x_min":88,"x_max":1370.234375,"ha":1327,"o":"m 1228 13 l 1370 13 q 1166 -202 1303 -124 q 781 -292 1008 -292 q 403 -216 562 -292 q 165 6 243 -140 q 88 327 88 154 q 176 682 88 518 q 418 929 264 847 q 769 1012 571 1012 q 1067 945 936 1012 q 1266 756 1197 879 q 1335 488 1335 634 q 1230 176 1335 315 q 894 0 1099 0 q 811 19 839 0 q 774 77 783 39 q 593 0 696 0 q 410 77 483 0 q 338 284 338 155 q 425 574 338 443 q 698 735 531 735 q 872 642 816 735 l 889 717 l 1064 717 l 964 231 q 955 171 955 185 q 962 146 955 154 q 981 138 970 138 q 1063 177 1013 138 q 1173 315 1131 228 q 1215 495 1215 402 q 1096 774 1215 662 q 766 887 978 887 q 461 812 586 887 q 272 601 335 737 q 209 318 209 465 q 279 58 209 175 q 478 -113 350 -59 q 771 -167 606 -167 q 1044 -122 929 -167 q 1228 13 1158 -77 m 510 291 q 544 164 510 205 q 628 124 578 124 q 699 142 666 124 q 749 185 725 156 q 810 306 785 226 q 836 454 836 385 q 801 571 836 530 q 713 613 766 613 q 607 567 656 613 q 534 439 559 522 q 510 291 510 355 "},"f":{"x_min":73.109375,"x_max":640.6875,"ha":453,"o":"m 546 720 l 517 578 l 382 578 l 263 0 l 73 0 l 191 578 l 85 578 l 114 720 l 220 720 l 235 793 q 271 916 254 884 q 338 985 293 960 q 455 1011 383 1011 q 640 978 543 1011 l 603 839 q 492 863 535 863 q 443 842 459 863 q 422 770 433 828 l 411 720 l 546 720 "},";":{"x_min":55.15625,"x_max":435.3125,"ha":453,"o":"m 246 720 l 435 720 l 396 532 l 208 532 l 246 720 m 138 188 l 330 188 l 298 32 q 211 -158 271 -102 q 55 -214 150 -214 l 73 -125 q 147 -86 121 -114 q 186 0 174 -58 l 99 0 l 138 188 "},"i":{"x_min":54.5,"x_max":448.609375,"ha":378,"o":"m 257 994 l 448 994 l 412 818 l 221 818 l 257 994 m 202 720 l 392 720 l 245 0 l 54 0 l 202 720 "},"6":{"x_min":110,"x_max":783.1875,"ha":757,"o":"m 783 744 l 604 744 q 576 819 598 795 q 516 843 554 843 q 429 803 467 843 q 343 621 376 747 q 474 663 405 663 q 660 584 587 663 q 734 369 734 505 q 682 166 734 262 q 555 26 631 70 q 393 -18 478 -18 q 246 23 312 -18 q 145 145 181 65 q 110 359 110 225 q 225 812 110 626 q 530 998 341 998 q 704 935 639 998 q 783 744 768 872 m 293 292 q 323 176 293 213 q 399 139 354 139 q 495 191 455 139 q 549 382 549 262 q 519 497 549 460 q 445 534 489 534 q 372 505 409 534 q 313 416 334 477 q 293 292 293 355 "},"A":{"x_min":-15.28125,"x_max":916.484375,"ha":983,"o":"m 693 220 l 307 220 l 190 0 l -15 0 l 535 993 l 758 993 l 916 0 l 726 0 l 693 220 m 669 385 l 612 785 l 377 385 l 669 385 "},"n":{"x_min":56.71875,"x_max":804,"ha":831,"o":"m 204 720 l 385 720 l 366 626 q 492 711 434 686 q 616 737 551 737 q 753 686 703 737 q 804 551 804 635 q 782 407 804 513 l 699 0 l 508 0 l 592 408 q 611 518 611 500 q 589 576 611 555 q 529 598 567 598 q 436 562 487 598 q 355 467 385 526 q 307 295 334 425 l 247 0 l 56 0 l 204 720 "},"O":{"x_min":119,"x_max":1067,"ha":1058,"o":"m 119 389 q 144 575 119 477 q 248 802 178 706 q 423 955 317 899 q 663 1011 528 1011 q 955 896 844 1011 q 1067 592 1067 781 q 994 287 1067 435 q 797 61 922 140 q 516 -18 673 -18 q 288 45 380 -18 q 157 201 196 108 q 119 389 119 294 m 317 393 q 378 222 317 291 q 538 153 439 153 q 694 207 619 153 q 818 373 769 262 q 867 589 867 483 q 805 773 867 706 q 647 840 743 840 q 409 700 501 840 q 317 393 317 560 "},"3":{"x_min":68.75,"x_max":762,"ha":757,"o":"m 68 259 l 251 282 q 292 172 262 202 q 371 142 321 142 q 479 186 436 142 q 522 301 522 231 q 487 397 522 361 q 394 433 452 433 q 363 430 379 433 l 397 592 q 416 591 407 591 q 532 630 492 591 q 572 738 572 670 q 545 814 572 786 q 474 842 518 842 q 401 811 433 842 q 349 705 368 780 l 175 740 q 267 909 208 850 q 488 998 357 998 q 692 921 622 998 q 762 738 762 845 q 717 599 762 661 q 595 507 672 536 q 685 421 656 474 q 715 311 715 368 q 638 109 715 201 q 369 -17 534 -17 q 166 55 246 -17 q 68 259 86 127 "},"]":{"x_min":-75.765625,"x_max":510.421875,"ha":453,"o":"m 154 849 l 184 994 l 510 994 l 250 -274 l -75 -274 l -44 -122 l 102 -122 l 301 849 l 154 849 "},"m":{"x_min":48.921875,"x_max":1183,"ha":1211,"o":"m 196 720 l 375 720 l 357 632 q 578 737 462 737 q 701 703 658 737 q 756 609 744 669 q 861 700 793 663 q 1004 737 930 737 q 1135 690 1088 737 q 1183 568 1183 644 q 1164 440 1183 531 l 1073 0 l 883 0 l 973 440 q 990 533 990 522 q 972 580 990 563 q 919 598 954 598 q 792 521 848 598 q 723 326 752 466 l 656 0 l 465 0 l 554 435 q 569 532 569 510 q 551 579 569 561 q 498 598 532 598 q 434 579 467 598 q 376 526 401 560 q 333 441 351 493 q 307 330 325 416 l 239 0 l 48 0 l 196 720 "},"9":{"x_min":90,"x_max":759,"ha":756,"o":"m 90 236 l 264 236 q 292 161 270 185 q 352 138 314 138 q 438 176 401 138 q 524 358 492 233 q 394 318 462 318 q 208 396 281 318 q 135 610 135 474 q 228 880 135 762 q 477 998 322 998 q 686 896 614 998 q 759 621 759 794 q 642 168 759 353 q 335 -17 525 -17 q 156 49 223 -17 q 90 236 90 116 m 576 688 q 545 804 576 767 q 469 841 514 841 q 373 788 413 841 q 320 597 320 717 q 349 482 320 519 q 423 446 379 446 q 496 474 459 446 q 555 564 534 502 q 576 688 576 625 "},"Ɽ":{"x_min":39,"x_max":1009,"ha":983,"o":"m 1009 733 q 925 515 1009 596 q 709 422 847 441 q 781 329 749 386 q 931 0 848 215 l 716 0 q 614 262 689 85 q 526 392 573 359 q 427 412 498 412 l 345 412 l 261 -1 q 245 -94 245 -83 q 309 -142 245 -142 q 372 -137 322 -142 l 342 -281 q 241 -292 293 -292 q 39 -142 39 -292 q 63 11 39 -109 l 264 994 l 696 994 q 850 977 797 994 q 971 884 929 953 q 1009 733 1009 823 m 809 730 q 765 811 809 784 q 650 828 739 828 l 430 828 l 375 561 l 482 561 q 642 567 602 561 q 779 642 737 583 q 809 730 809 684 "},"l":{"x_min":53.171875,"x_max":447.28125,"ha":378,"o":"m 53 0 l 257 994 l 447 994 l 243 0 l 53 0 "},"8":{"x_min":90,"x_max":772,"ha":757,"o":"m 292 546 q 215 626 241 581 q 190 726 190 671 q 225 855 190 789 q 333 959 261 921 q 495 997 404 997 q 698 927 625 997 q 772 753 772 858 q 730 623 772 678 q 607 531 689 568 q 696 441 667 494 q 726 319 726 388 q 655 114 726 207 q 375 -18 553 -18 q 168 59 246 -18 q 90 257 90 137 q 144 435 90 356 q 292 546 198 514 m 365 713 q 393 637 365 666 q 465 609 421 609 q 556 648 517 609 q 595 741 595 688 q 566 819 595 789 q 493 849 537 849 q 402 809 440 849 q 365 713 365 770 m 280 254 q 309 166 280 198 q 387 135 339 135 q 501 201 461 135 q 542 345 542 267 q 511 427 542 395 q 432 460 480 460 q 326 403 372 460 q 280 254 280 347 "},"p":{"x_min":-7.34375,"x_max":824,"ha":831,"o":"m 196 719 l 376 719 l 361 646 q 469 715 419 694 q 578 737 520 737 q 756 659 689 737 q 824 426 824 581 q 707 97 824 231 q 471 -17 608 -17 q 259 98 331 -17 l 183 -275 l -7 -275 l 196 719 m 311 307 q 351 176 311 222 q 446 130 391 130 q 537 164 493 130 q 610 280 581 199 q 639 431 639 361 q 601 554 639 511 q 504 598 563 598 q 405 558 450 598 q 335 441 360 518 q 311 307 311 364 "},"4":{"x_min":37.21875,"x_max":762.296875,"ha":757,"o":"m 420 203 l 37 203 l 70 365 l 597 993 l 762 993 l 634 368 l 752 368 l 718 203 l 600 203 l 558 0 l 378 0 l 420 203 m 454 368 l 517 677 l 260 368 l 454 368 "},"R":{"x_min":59.984375,"x_max":1009,"ha":983,"o":"m 260 0 l 59 0 l 264 994 l 696 994 q 870 970 808 994 q 970 884 932 947 q 1009 733 1009 822 q 934 524 1009 607 q 709 422 860 442 q 781 329 747 387 q 931 0 848 213 l 715 0 q 614 262 690 84 q 526 392 573 359 q 426 412 497 412 l 345 412 l 260 0 m 375 561 l 482 561 q 696 580 643 561 q 779 642 749 600 q 809 730 809 684 q 765 811 809 784 q 650 828 739 828 l 430 828 l 375 561 "},"o":{"x_min":82,"x_max":815,"ha":831,"o":"m 82 298 q 192 618 82 499 q 483 737 303 737 q 727 649 639 737 q 815 412 815 561 q 705 110 815 237 q 411 -17 595 -17 q 234 23 311 -17 q 119 138 157 64 q 82 298 82 213 m 625 438 q 586 548 625 507 q 483 590 546 590 q 374 551 422 590 q 299 438 326 512 q 273 302 273 364 q 314 179 273 224 q 418 134 355 134 q 549 202 496 134 q 625 438 625 299 "},"5":{"x_min":87,"x_max":786.296875,"ha":757,"o":"m 87 284 l 271 301 q 271 281 271 288 q 301 177 271 212 q 380 143 331 143 q 503 209 447 143 q 559 391 559 275 q 527 495 559 460 q 444 531 496 531 q 372 513 407 531 q 304 466 337 496 l 148 466 l 296 981 l 786 981 l 750 803 l 426 803 l 382 649 q 437 668 410 662 q 493 675 465 675 q 676 598 604 675 q 748 393 748 521 q 698 190 748 290 q 558 36 647 90 q 371 -17 469 -17 q 167 65 247 -17 q 87 284 87 147 "}}}
